<?xml version="1.0" encoding="utf-8"?>
<!-- Generator: Adobe Illustrator 16.0.0, SVG Export Plug-In . SVG Version: 6.00 Build 0)  -->
<!DOCTYPE svg PUBLIC "-//W3C//DTD SVG 1.1//EN" "http://www.w3.org/Graphics/SVG/1.1/DTD/svg11.dtd">
<svg version="1.1" id="Capa_1" xmlns="http://www.w3.org/2000/svg" x="0px"
     y="0px"
     width="45px" height="65px" viewBox="0 0 45 65" enable-background="new 0 0 45 65" xml:space="preserve">
<g>
	<path fill="#49A997" d="M13.334,2.499v6c0.003,1.115,0.366,2.172,1.066,3.014c0.684,0.838,1.808,1.491,3.099,1.487H27.5
		c1.292,0,2.413-0.649,3.099-1.485c0.697-0.844,1.064-1.9,1.067-3.016v-6C31.666,1.118,30.547,0,29.167,0
		c-1.381,0-2.5,1.118-2.5,2.499v6h0.312l-0.223-0.186l-0.09,0.186h0.312l-0.223-0.186L27.5,8.932V8.001
		c-0.377-0.003-0.662,0.203-0.743,0.312L27.5,8.932V8.001H17.499v0.931l0.744-0.618c-0.082-0.109-0.373-0.319-0.744-0.312v0.931
		l0.744-0.618l-0.223,0.182l0.312,0.004l-0.09-0.186l-0.223,0.182l0.312,0.004v-6c0-1.381-1.119-2.499-2.5-2.499
		S13.334,1.118,13.334,2.499z"/>
    <path fill="#49A997" d="M9.999,25.834v3.331c0,1.383,1.121,2.501,2.501,2.501c1.379,0,2.501-1.118,2.501-2.501v-3.331
		c0-1.38-1.122-2.501-2.501-2.501C11.12,23.333,9.999,24.454,9.999,25.834"/>
    <path fill="#49A997" d="M29.999,25.834v3.331c0,1.383,1.122,2.501,2.501,2.501s2.501-1.118,2.501-2.501v-3.331
		c0-1.38-1.122-2.501-2.501-2.501S29.999,24.454,29.999,25.834"/>
    <path fill="#49A997" d="M20.276,38.333h1.112c2.608-0.006,4.719-2.113,4.722-4.721v-7.778c0-1.38-1.121-2.501-2.501-2.501
		c-1.379,0-2.501,1.121-2.501,2.501v7.778h0.28v-0.278l-0.28,0.278h0.28v-0.278h-1.112c-1.381,0-2.5,1.117-2.5,2.501
		C17.776,37.214,18.896,38.333,20.276,38.333z"/>
    <path fill="#49A997" d="M27.937,40.729c-1.507,1.506-3.461,2.253-5.436,2.253c-1.976,0-3.93-0.749-5.438-2.253
		c-0.976-0.977-2.56-0.977-3.534,0.002c-0.978,0.978-0.978,2.562,0,3.537c2.471,2.471,5.73,3.717,8.973,3.713
		c3.238,0.004,6.499-1.242,8.971-3.715c0.976-0.976,0.976-2.561,0-3.535c-0.977-0.975-2.559-0.975-3.535,0V40.729z"/>
    <path fill="#49A997" d="M9.167,2.499V5h26.666C38.127,5.002,39.997,6.872,40,9.167v46.666c-0.003,2.291-1.873,4.161-4.167,4.168
		H9.167c-2.294-0.007-4.164-1.877-4.168-4.168V9.167C5.003,6.872,6.873,5.002,9.167,5V2.499V0C4.104,0.003,0.003,4.103,0,9.167
		v46.666c0.003,5.062,4.104,9.16,9.167,9.167h26.666c5.062-0.007,9.164-4.104,9.167-9.167V9.167C44.997,4.103,40.896,0.003,35.833,0
		H9.167V2.499z"/>
</g>
</svg>
