<?xml version="1.0" encoding="utf-8"?>
<!-- Generator: Adobe Illustrator 16.0.0, SVG Export Plug-In . SVG Version: 6.00 Build 0)  -->
<!DOCTYPE svg PUBLIC "-//W3C//DTD SVG 1.1//EN" "http://www.w3.org/Graphics/SVG/1.1/DTD/svg11.dtd">
<svg version="1.1" id="Capa_1" xmlns="http://www.w3.org/2000/svg" x="0px"
     y="0px"
     width="60.755px" height="60.755px" viewBox="0 0 60.755 60.755" enable-background="new 0 0 60.755 60.755"
     xml:space="preserve">
<g>
	<path fill="#49A997" d="M23.02,40.777l7.357-14.564l7.356,14.564c0.582,1.152,1.986,1.615,3.138,1.031
		c1.152-0.582,1.615-1.984,1.034-3.137l-9.441-18.693c-0.398-0.789-1.208-1.284-2.087-1.284s-1.688,0.495-2.085,1.28l-9.444,18.694
		c-0.583,1.153-0.121,2.558,1.031,3.14c1.152,0.584,2.558,0.121,3.141-1.028V40.777z"/>
    <path fill="#49A997" d="M23.295,37.437h14.189c1.291,0,2.337-1.047,2.337-2.337s-1.046-2.337-2.337-2.337H23.295
		c-1.291,0-2.337,1.047-2.337,2.337S22.004,37.437,23.295,37.437"/>
    <path fill="#49A997" d="M6.231,14.8v31.155c0,1.29,1.047,2.337,2.337,2.337s2.336-1.047,2.336-2.337V14.8
		c0-1.29-1.046-2.337-2.336-2.337S6.231,13.51,6.231,14.8"/>
    <path fill="#49A997" d="M54.524,45.955V14.8c0-1.29-1.048-2.337-2.338-2.337s-2.336,1.047-2.336,2.337v31.155
		c0,1.29,1.046,2.337,2.336,2.337S54.524,47.245,54.524,45.955"/>
    <path fill="#49A997" d="M55.304,58.418v-2.337h-6.232c-0.435-0.003-0.777-0.343-0.779-0.778v-6.231
		c0-0.429,0.351-0.779,0.779-0.779h6.232c0.425,0,0.776,0.354,0.777,0.779v6.231c-0.001,0.433-0.347,0.778-0.777,0.778V58.418v2.337
		c3.005-0.006,5.451-2.437,5.451-5.452v-6.231c-0.003-3.013-2.44-5.449-5.451-5.452h-6.232c-3.015,0.003-5.451,2.442-5.453,5.452
		v6.231c0.007,3.016,2.444,5.446,5.453,5.452h6.232V58.418z"/>
    <path fill="#49A997" d="M11.684,58.418v-2.337H5.452c-0.436-0.003-0.777-0.343-0.778-0.778v-6.231c0-0.429,0.351-0.779,0.778-0.779
		h6.231c0.426,0,0.777,0.354,0.779,0.779v6.231c-0.002,0.433-0.347,0.778-0.779,0.778V58.418v2.337
		c3.006-0.006,5.453-2.437,5.453-5.452v-6.231c-0.004-3.013-2.44-5.449-5.453-5.452H5.452C2.437,43.622,0.002,46.062,0,49.071v6.231
		c0.006,3.016,2.443,5.446,5.452,5.452h6.231V58.418z"/>
    <path fill="#49A997" d="M55.304,14.8v-2.337h-6.232c-0.435-0.003-0.777-0.345-0.779-0.779V5.452c0-0.429,0.351-0.779,0.779-0.779
		h6.232c0.425,0,0.776,0.354,0.777,0.779v6.231c-0.001,0.432-0.347,0.779-0.777,0.779V14.8v2.337
		c3.005-0.008,5.451-2.438,5.451-5.453V5.452C60.752,2.44,58.314,0.003,55.304,0h-6.232c-3.015,0.003-5.451,2.443-5.453,5.452v6.231
		c0.007,3.016,2.444,5.445,5.453,5.453h6.232V14.8z"/>
    <path fill="#49A997" d="M11.684,14.8v-2.337H5.452c-0.436-0.003-0.777-0.345-0.778-0.779V5.452c0-0.429,0.351-0.779,0.778-0.779
		h6.231c0.426,0,0.777,0.354,0.779,0.779v6.231c-0.002,0.432-0.347,0.779-0.779,0.779V14.8v2.337
		c3.006-0.008,5.453-2.438,5.453-5.453V5.452C17.133,2.44,14.696,0.003,11.684,0H5.452C2.437,0.003,0.002,2.443,0,5.452v6.231
		c0.006,3.016,2.443,5.445,5.452,5.453h6.231V14.8z"/>
    <path fill="#49A997" d="M14.8,54.523h31.155c1.291,0,2.337-1.046,2.337-2.337c0-1.29-1.046-2.337-2.337-2.337H14.8
		c-1.29,0-2.337,1.047-2.337,2.337C12.463,53.478,13.51,54.523,14.8,54.523"/>
    <path fill="#49A997" d="M45.955,6.231H14.8c-1.29,0-2.337,1.047-2.337,2.337s1.047,2.337,2.337,2.337h31.155
		c1.291,0,2.337-1.047,2.337-2.337S47.246,6.231,45.955,6.231"/>
</g>
</svg>
