<?xml version="1.0" encoding="utf-8"?>
<!-- Generator: Adobe Illustrator 16.0.0, SVG Export Plug-In . SVG Version: 6.00 Build 0)  -->
<!DOCTYPE svg PUBLIC "-//W3C//DTD SVG 1.1//EN" "http://www.w3.org/Graphics/SVG/1.1/DTD/svg11.dtd">
<svg version="1.1" id="Capa_1" xmlns="http://www.w3.org/2000/svg" x="0px"
     y="0px"
     width="65.38px" height="66.218px" viewBox="0 0 65.38 66.218" enable-background="new 0 0 65.38 66.218"
     xml:space="preserve">
<g>
	<path fill="#49A997" d="M56.159,49.454V46.94h-3.352c-0.459-0.005-0.837-0.381-0.839-0.84V29.337
		c0.002-0.461,0.377-0.838,0.839-0.838h3.352c2.312,0.003,4.187,1.883,4.192,4.191v10.059c-0.006,2.311-1.88,4.187-4.192,4.191
		V49.454v2.515c5.093-0.003,9.219-4.126,9.221-9.22V32.69c-0.003-5.092-4.126-9.217-9.221-9.221h-3.352
		c-3.239,0-5.866,2.623-5.868,5.867v16.764c0.005,3.242,2.626,5.865,5.868,5.868h3.352V49.454z"/>
    <path fill="#49A997" d="M12.573,49.454V46.94H9.221c-2.312-0.005-4.186-1.881-4.191-4.191V32.69
		c0.006-2.309,1.882-4.188,4.191-4.191h3.353c0.463,0,0.837,0.373,0.838,0.838v16.764c-0.001,0.459-0.378,0.835-0.838,0.84V49.454
		v2.515c3.243-0.003,5.864-2.629,5.867-5.868V29.337c-0.001-3.244-2.628-5.867-5.867-5.867H9.221C4.128,23.474,0.003,27.599,0,32.69
		v10.059c0.002,5.094,4.129,9.217,9.221,9.22h3.353V49.454z"/>
    <path fill="#49A997" d="M56.997,25.985v-1.678C56.996,10.88,46.115,0.003,32.69,0C19.264,0.003,8.385,10.88,8.383,24.308v1.678
		c0,1.387,1.127,2.514,2.514,2.514c1.389,0,2.515-1.127,2.515-2.514v-1.678c0.003-5.333,2.155-10.134,5.647-13.63
		c3.497-3.493,8.3-5.647,13.632-5.647c5.331,0,10.136,2.154,13.632,5.647c3.492,3.496,5.646,8.297,5.646,13.63v1.678
		c0,1.387,1.127,2.514,2.515,2.514S56.997,27.372,56.997,25.985z"/>
    <path fill="#49A997" d="M34.786,63.703v-2.515h-4.19c-0.925-0.002-1.676-0.752-1.678-1.676c0.002-0.924,0.753-1.674,1.678-1.676
		h4.19c0.923,0.002,1.675,0.752,1.676,1.676c-0.001,0.924-0.753,1.674-1.676,1.676V63.703v2.515c3.704-0.003,6.704-3,6.706-6.705
		c-0.002-3.707-3.002-6.702-6.706-6.706h-4.19c-3.704,0.004-6.705,2.999-6.706,6.706c0.001,3.705,3.002,6.702,6.706,6.705h4.19
		V63.703z"/>
    <path fill="#49A997" d="M38.977,62.027h7.124c5.093-0.003,9.219-4.126,9.221-9.221v-3.353c0-1.389-1.127-2.514-2.514-2.514
		c-1.389,0-2.515,1.125-2.515,2.514v3.353c-0.006,2.312-1.88,4.188-4.192,4.19h-7.124c-1.388,0-2.515,1.127-2.515,2.516
		S37.589,62.027,38.977,62.027z"/>
</g>
</svg>
