<?xml version="1.0" encoding="utf-8"?>
<!-- Generator: Adobe Illustrator 16.0.0, SVG Export Plug-In . SVG Version: 6.00 Build 0)  -->
<!DOCTYPE svg PUBLIC "-//W3C//DTD SVG 1.1//EN" "http://www.w3.org/Graphics/SVG/1.1/DTD/svg11.dtd">
<svg version="1.1" id="Capa_1" xmlns="http://www.w3.org/2000/svg" x="0px"
     y="0px"
     width="74.161px" height="67.259px" viewBox="0 0 74.161 67.259" enable-background="new 0 0 74.161 67.259"
     xml:space="preserve">
<g>
	<path fill="#49A997" d="M71.573,47.425h-2.587c-0.001,4.056-1.637,7.704-4.295,10.365c-2.661,2.657-6.309,4.291-10.364,4.295
		c-4.056-0.004-7.706-1.638-10.367-4.295c-2.656-2.661-4.291-6.31-4.293-10.365c0.002-4.059,1.637-7.703,4.293-10.364
		c2.661-2.658,6.312-4.295,10.367-4.295s7.705,1.637,10.366,4.295c2.656,2.661,4.292,6.306,4.293,10.364H71.573h2.587
		c-0.001-10.957-8.879-19.833-19.833-19.833c-10.955,0-19.832,8.876-19.834,19.833c0.002,10.951,8.879,19.831,19.834,19.834
		c10.954-0.003,19.832-8.883,19.833-19.834H71.573z"/>
    <path fill="#49A997" d="M27.615,9.681l-0.017,0.027c-0.798,1.115-0.583,2.661,0.488,3.523l0.017,0.014
		c0.945,0.754,2.288,0.754,3.232,0l0.017-0.014c1.073-0.862,1.289-2.408,0.49-3.523l-0.017-0.027c-0.83-1.162-2.447-1.432-3.609-0.6
		c-1.162,0.829-1.432,2.446-0.601,3.611l0.017,0.021l2.105-1.503L28.12,9.189l-0.017,0.014l1.617,2.021l1.615-2.021l-0.017-0.014
		l-1.615,2.021l2.105,1.503l0.017-0.023c0.83-1.162,0.561-2.779-0.601-3.608c-1.164-0.828-2.779-0.559-3.609,0.604V9.681z"/>
    <path fill="#49A997" d="M18.856,9.681L18.84,9.708c-0.798,1.115-0.583,2.661,0.488,3.523l0.017,0.014
		c0.945,0.754,2.288,0.754,3.232,0l0.017-0.014c1.073-0.862,1.289-2.408,0.49-3.523l-0.017-0.027
		c-0.831-1.162-2.447-1.432-3.609-0.6c-1.162,0.829-1.432,2.446-0.602,3.611l0.017,0.021l2.105-1.503l-1.617-2.021l-0.017,0.014
		l1.617,2.021l1.615-2.021l-0.017-0.014l-1.615,2.021l2.105,1.503l0.017-0.023c0.83-1.162,0.561-2.779-0.602-3.608
		c-1.164-0.828-2.779-0.559-3.609,0.604V9.681z"/>
    <path fill="#49A997" d="M10.185,9.513l-0.017,0.021c-0.8,0.96-0.8,2.351,0,3.314l0.017,0.02c0.492,0.587,1.219,0.93,1.987,0.93
		c0.768,0,1.496-0.343,1.987-0.93l0.017-0.02c0.8-0.964,0.8-2.354,0-3.314l-0.017-0.021c-0.915-1.099-2.547-1.246-3.645-0.33
		c-1.097,0.916-1.245,2.547-0.33,3.645l0.017,0.021l1.987-1.657l-1.987-1.657l-0.017,0.02l1.987,1.657l1.987-1.657l-0.017-0.02
		l-1.987,1.657l1.987,1.657l0.017-0.021c0.915-1.098,0.767-2.729-0.332-3.645C12.729,8.267,11.099,8.414,10.185,9.513z"/>
    <path fill="#49A997" d="M2.587,22.417h58.639c1.428,0,2.587-1.158,2.587-2.587c0-1.428-1.159-2.587-2.587-2.587H2.587
		C1.158,17.243,0,18.402,0,19.83C0,21.259,1.158,22.417,2.587,22.417"/>
    <path fill="#49A997" d="M63.812,31.613V9.485C63.811,4.241,59.563,0,54.327,0H9.485C4.249,0,0.001,4.241,0,9.485v37.943
		c0.003,5.237,4.246,9.482,9.485,9.485h29.037c1.428,0,2.585-1.159,2.585-2.587c0-1.429-1.157-2.587-2.585-2.587H9.485
		c-2.376-0.007-4.307-1.938-4.312-4.312V9.485c0.005-2.385,1.932-4.308,4.312-4.312h44.842c2.38,0.004,4.307,1.927,4.312,4.312
		v22.128c0,1.429,1.157,2.587,2.587,2.587C62.654,34.2,63.812,33.042,63.812,31.613z"/>
    <path fill="#49A997" d="M60.163,41.763l-7.755,7.751l-3.917-3.918c-1.011-1.011-2.649-1.011-3.658,0
		c-1.011,1.011-1.011,2.647,0,3.658l5.746,5.747c0.489,0.488,1.139,0.758,1.829,0.758c0.691,0,1.341-0.27,1.829-0.758l9.584-9.58
		c1.01-1.011,1.01-2.647,0-3.658C62.811,40.752,61.173,40.752,60.163,41.763z"/>
</g>
</svg>
