<?xml version="1.0" encoding="utf-8"?>
<!-- Generator: Adobe Illustrator 16.0.0, SVG Export Plug-In . SVG Version: 6.00 Build 0)  -->
<!DOCTYPE svg PUBLIC "-//W3C//DTD SVG 1.1//EN" "http://www.w3.org/Graphics/SVG/1.1/DTD/svg11.dtd">
<svg version="1.1" id="Capa_1" xmlns="http://www.w3.org/2000/svg" x="0px"
     y="0px"
     width="70.869px" height="70.87px" viewBox="0 0 70.869 70.87" enable-background="new 0 0 70.869 70.87"
     xml:space="preserve">
<g>
	<path fill="#49A997" d="M64.862,32.577V17.56c-0.001-4.564-3.698-8.257-8.259-8.26H17.558c-4.561,0.003-8.257,3.695-8.259,8.26
		v39.043c0.002,4.564,3.699,8.258,8.259,8.26h12.014c1.244,0,2.252-1.008,2.252-2.252s-1.009-2.253-2.252-2.253H17.558
		c-2.07-0.002-3.75-1.683-3.754-3.755V17.56c0.004-2.071,1.684-3.752,3.754-3.754h39.044c2.071,0.002,3.75,1.683,3.754,3.754v15.018
		c0,1.242,1.009,2.252,2.252,2.252S64.862,33.819,64.862,32.577z"/>
    <path fill="#49A997" d="M47.304,0H8.259C3.698,0,0.001,3.695,0,8.259v39.044c0,1.244,1.009,2.253,2.252,2.253
		s2.252-1.009,2.252-2.253V8.259c0.005-2.07,1.684-3.752,3.754-3.754h39.044c1.244,0,2.251-1.01,2.251-2.252
		C49.555,1.009,48.547,0,47.304,0z"/>
    <path fill="#49A997" d="M18.307,17.585l-0.015,0.018c-0.697,0.836-0.697,2.049,0,2.887l0.015,0.018
		c0.428,0.51,1.062,0.811,1.73,0.811c0.669,0,1.303-0.301,1.731-0.811l0.015-0.018c0.696-0.838,0.696-2.051,0-2.887l-0.015-0.018
		c-0.796-0.955-2.217-1.084-3.174-0.287c-0.955,0.799-1.083,2.218-0.287,3.174l0.014,0.018l1.731-1.443l-1.731-1.443l-0.014,0.018
		l1.73,1.444l1.731-1.444l-0.015-0.018l-1.73,1.443l1.73,1.443l0.015-0.018c0.796-0.956,0.667-2.379-0.289-3.174
		C20.522,16.501,19.103,16.63,18.307,17.585z"/>
    <path fill="#49A997" d="M25.943,17.585l-0.014,0.018c-0.697,0.836-0.697,2.049,0,2.887l0.014,0.018
		c0.429,0.51,1.062,0.811,1.731,0.811s1.302-0.301,1.73-0.811l0.015-0.018c0.697-0.838,0.697-2.051,0-2.887l-0.015-0.018
		c-0.796-0.955-2.217-1.084-3.174-0.287c-0.955,0.799-1.083,2.218-0.288,3.174l0.015,0.018l1.73-1.443l-1.73-1.443l-0.015,0.018
		l1.731,1.444l1.73-1.444l-0.015-0.018l-1.73,1.443l1.73,1.443l0.015-0.018c0.796-0.956,0.667-2.379-0.289-3.174
		C28.16,16.501,26.74,16.63,25.943,17.585z"/>
    <path fill="#49A997" d="M33.57,17.585l-0.015,0.018c-0.696,0.836-0.696,2.049,0,2.887l0.015,0.018
		c0.428,0.51,1.062,0.811,1.73,0.811c0.668,0,1.302-0.301,1.73-0.811l0.015-0.018c0.696-0.838,0.696-2.051,0-2.887l-0.015-0.018
		c-0.796-0.955-2.217-1.084-3.173-0.287c-0.955,0.799-1.084,2.218-0.288,3.174l0.015,0.018l1.73-1.443l-1.73-1.443L33.57,17.62
		l1.73,1.444l1.73-1.444l-0.015-0.018l-1.73,1.443l1.73,1.443l0.015-0.018c0.796-0.956,0.667-2.379-0.289-3.174
		C35.786,16.501,34.366,16.63,33.57,17.585z"/>
    <path fill="#49A997" d="M11.689,28.822h50.92c1.244,0,2.252-1.009,2.252-2.253s-1.009-2.252-2.252-2.252h-50.92
		c-1.243,0-2.252,1.008-2.252,2.252S10.446,28.822,11.689,28.822"/>
    <path fill="#49A997" d="M59.125,44.513l-1.964,1.107l8.746,15.544c0.323,0.575,0.455,1.141,0.457,1.701
		c0.003,0.895-0.367,1.792-0.993,2.44c-0.632,0.65-1.456,1.053-2.503,1.059H45.378c-1.049-0.006-1.874-0.408-2.505-1.055
		c-0.625-0.648-0.995-1.547-0.993-2.441c0.001-0.563,0.135-1.129,0.456-1.701l0.001-0.003l8.743-15.548
		c0.688-1.211,1.82-1.763,3.039-1.78c1.219,0.018,2.354,0.571,3.042,1.78L59.125,44.513l1.963-1.105
		c-1.507-2.691-4.279-4.088-6.969-4.073c-2.688-0.015-5.461,1.382-6.966,4.077l-8.743,15.548l0.001-0.003
		c-0.704,1.243-1.039,2.602-1.037,3.912c0.003,2.103,0.833,4.084,2.247,5.559c1.406,1.479,3.456,2.445,5.756,2.443h17.489
		c2.3,0.002,4.35-0.969,5.756-2.447c1.413-1.475,2.244-3.454,2.246-5.558c0.003-1.312-0.333-2.666-1.035-3.909l-8.745-15.549
		L59.125,44.513z"/>
    <path fill="#49A997" d="M56.374,55.466v-5.268c0-1.244-1.009-2.254-2.252-2.254s-2.252,1.01-2.252,2.254v5.268
		c0,1.242,1.009,2.252,2.252,2.252S56.374,56.708,56.374,55.466"/>
    <path fill="#49A997" d="M52.517,59.694l-0.258,0.262c-0.87,0.88-0.87,2.287,0,3.168l0.261,0.264
		c0.423,0.428,1.006,0.669,1.609,0.669c0.601-0.003,1.182-0.249,1.603-0.679l0.258-0.264c0.865-0.885,0.858-2.293-0.018-3.168
		l-0.261-0.26c-0.88-0.881-2.307-0.881-3.185,0c-0.88,0.88-0.88,2.305,0,3.186l0.261,0.26l1.592-1.592l-1.61-1.576l-0.258,0.266
		l1.61,1.574l1.602-1.584l-0.261-0.264L53.86,61.54l1.602,1.584l0.258-0.262c0.874-0.885,0.866-2.311-0.018-3.186
		C54.816,58.803,53.391,58.812,52.517,59.694z"/>
</g>
</svg>
