<?xml version="1.0" encoding="utf-8"?>
<!-- Generator: Adobe Illustrator 16.0.0, SVG Export Plug-In . SVG Version: 6.00 Build 0)  -->
<!DOCTYPE svg PUBLIC "-//W3C//DTD SVG 1.1//EN" "http://www.w3.org/Graphics/SVG/1.1/DTD/svg11.dtd">
<svg version="1.1" id="Capa_1" xmlns="http://www.w3.org/2000/svg" x="0px"
     y="0px"
     width="65px" height="58.955px" viewBox="0 0 65 58.955" enable-background="new 0 0 65 58.955" xml:space="preserve">
<g>
	<path fill="#49A997" d="M38.169,48.373H5.291c-0.421,0-0.757-0.336-0.757-0.756v-3.022c0-0.417,0.34-0.756,0.757-0.756h32.878
		c1.251,0,2.267-1.015,2.267-2.267s-1.016-2.269-2.267-2.269H5.291C2.365,39.304,0,41.672,0,44.595v3.022
		c0,2.923,2.368,5.291,5.291,5.291h32.878c1.251,0,2.267-1.015,2.267-2.267C40.436,49.389,39.42,48.373,38.169,48.373z"/>
    <path fill="#49A997" d="M58.953,8.316C58.95,3.722,55.23,0.004,50.64,0H11.336C6.747,0.004,3.025,3.722,3.022,8.316v33.256
		c0,1.252,1.016,2.267,2.269,2.267c1.251,0,2.267-1.015,2.267-2.267V8.316c0.003-2.082,1.697-3.777,3.778-3.781H50.64
		c2.082,0.004,3.777,1.699,3.78,3.781c0,1.252,1.015,2.268,2.267,2.268C57.938,10.584,58.953,9.568,58.953,8.316z"/>
    <path fill="#49A997" d="M44.216,17.385v2.269h12.471c2.081,0.002,3.777,1.696,3.777,3.778v27.21c0,2.078-1.696,3.772-3.777,3.778
		H44.216c-2.083-0.006-3.777-1.7-3.78-3.778v-27.21c0.003-2.082,1.697-3.776,3.78-3.778V17.385v-2.267
		c-4.591,0.002-8.312,3.72-8.315,8.313v27.21c0.003,4.59,3.725,8.308,8.315,8.313h12.471c4.591-0.006,8.311-3.724,8.313-8.313
		v-27.21c-0.003-4.594-3.723-8.312-8.313-8.313H44.216V17.385z"/>
    <path fill="#49A997" d="M58.953,17.385V8.316c0-1.253-1.016-2.268-2.267-2.268c-1.252,0-2.267,1.015-2.267,2.268v9.068
		c0,1.252,1.015,2.269,2.267,2.269C57.938,19.653,58.953,18.637,58.953,17.385"/>
    <path fill="#49A997" d="M47.806,52.152h5.291c1.252,0,2.268-1.015,2.268-2.268c0-1.251-1.016-2.268-2.268-2.268h-5.291
		c-1.252,0-2.267,1.017-2.267,2.268C45.539,51.138,46.554,52.152,47.806,52.152"/>
</g>
</svg>
