<?xml version="1.0" encoding="utf-8"?>
<!-- Generator: Adobe Illustrator 16.0.0, SVG Export Plug-In . SVG Version: 6.00 Build 0)  -->
<!DOCTYPE svg PUBLIC "-//W3C//DTD SVG 1.1//EN" "http://www.w3.org/Graphics/SVG/1.1/DTD/svg11.dtd">
<svg version="1.1" id="Capa_1" xmlns="http://www.w3.org/2000/svg" x="0px"
     y="0px"
     width="63.304px" height="63.304px" viewBox="0 0 63.304 63.304" enable-background="new 0 0 63.304 63.304"
     xml:space="preserve">
<g>
	<path fill="#49A997" d="M34.086,47.884V2.435C34.086,1.091,32.996,0,31.652,0c-1.344,0-2.435,1.091-2.435,2.435v45.449
		c0,1.344,1.091,2.434,2.435,2.434C32.996,50.317,34.086,49.228,34.086,47.884"/>
    <path fill="#49A997" d="M43.112,10.452l-9.739-9.738c-0.951-0.952-2.492-0.952-3.443,0l-9.739,9.738
		c-0.951,0.951-0.951,2.491,0,3.442c0.95,0.952,2.492,0.952,3.443,0l8.018-8.018l8.017,8.018c0.951,0.952,2.492,0.952,3.443,0
		C44.063,12.943,44.063,11.403,43.112,10.452z"/>
    <path fill="#49A997" d="M18.667,22.724H8.927C3.996,22.728,0.003,26.722,0,31.651v22.725c0.001,4.933,3.998,8.924,8.927,8.928
		h45.449c4.929-0.004,8.925-3.995,8.927-8.928V31.651c-0.003-4.93-3.997-8.924-8.927-8.928h-9.739c-1.344,0-2.435,1.091-2.435,2.435
		c0,1.345,1.091,2.436,2.435,2.436h9.739c2.236,0.003,4.053,1.823,4.058,4.058v22.725c-0.005,2.238-1.82,4.055-4.058,4.058H8.927
		c-2.238-0.003-4.054-1.819-4.058-4.058V31.651c0.003-2.234,1.821-4.055,4.058-4.058h9.739c1.344,0,2.435-1.091,2.435-2.436
		C21.101,23.814,20.011,22.724,18.667,22.724z"/>
</g>
</svg>
