<?xml version="1.0" encoding="utf-8"?>
<!-- Generator: Adobe Illustrator 16.0.0, SVG Export Plug-In . SVG Version: 6.00 Build 0)  -->
<!DOCTYPE svg PUBLIC "-//W3C//DTD SVG 1.1//EN" "http://www.w3.org/Graphics/SVG/1.1/DTD/svg11.dtd">
<svg version="1.1" id="Capa_1" xmlns="http://www.w3.org/2000/svg" x="0px"
     y="0px"
     width="71.254px" height="73.503px" viewBox="0 0 71.254 73.503" enable-background="new 0 0 71.254 73.503"
     xml:space="preserve">
<g>
	<path fill="#49A997" d="M13.446,70.812v-2.688H6.275c-0.498-0.004-0.896-0.398-0.896-0.897V45.715c0-0.496,0.399-0.896,0.896-0.896
		h7.171c0.494,0,0.895,0.403,0.896,0.896v21.513c-0.001,0.495-0.402,0.894-0.896,0.897V70.812v2.69
		c3.463-0.004,6.273-2.805,6.274-6.275V45.715c-0.001-3.471-2.812-6.274-6.274-6.274H6.275C2.808,39.44,0,42.248,0,45.715v21.513
		c0,3.467,2.808,6.275,6.275,6.275h7.171V70.812z"/>
    <path fill="#49A997" d="M38.544,59.16h8.365c2.134,0,4.207-0.693,5.912-1.967l8.668-6.503c0.492-0.367,1.061-0.546,1.64-0.546
		c0.715,0.003,1.406,0.27,1.938,0.801c0.548,0.551,0.807,1.234,0.809,1.944c-0.002,0.707-0.261,1.391-0.804,1.933l-7.435,7.438
		c-1.625,1.624-3.695,2.731-5.949,3.182l-10.509,2.102c-0.76,0.151-1.531,0.229-2.3,0.229c-0.946,0-1.89-0.119-2.814-0.348
		l-9.498-2.377c-1.353-0.337-2.738-0.508-4.13-0.508h-5.406c-1.485,0-2.689,1.204-2.689,2.688c0,1.485,1.204,2.69,2.689,2.69h5.406
		c0.954,0,1.9,0.115,2.826,0.346l9.498,2.378c1.352,0.336,2.733,0.509,4.118,0.509c1.122,0,2.244-0.114,3.353-0.334l10.509-2.1
		c3.299-0.66,6.326-2.28,8.7-4.654l7.434-7.434c1.581-1.576,2.384-3.67,2.381-5.739c0.003-2.073-0.8-4.167-2.383-5.746
		c-1.566-1.571-3.659-2.378-5.742-2.378c-1.7,0-3.421,0.541-4.867,1.622l-8.665,6.502c-0.775,0.577-1.721,0.893-2.688,0.893h-8.365
		c-1.484,0-2.689,1.205-2.689,2.689C35.855,57.957,37.06,59.16,38.544,59.16z"/>
    <path fill="#49A997" d="M38.544,59.16h5.326c4.485-0.003,8.116-3.633,8.12-8.119v-1.082c-0.001-3.736-2.544-6.972-6.148-7.878
		l-8.219-2.056c-1.55-0.385-3.136-0.585-4.736-0.585c-3.857,0-7.626,1.142-10.833,3.28l-6.513,4.342
		c-1.236,0.823-1.57,2.495-0.746,3.729c0.823,1.235,2.493,1.572,3.729,0.746l6.512-4.342c2.326-1.552,5.055-2.378,7.851-2.378
		c1.152,0,2.302,0.144,3.433,0.424l8.214,2.055c1.218,0.306,2.08,1.406,2.078,2.662v1.082c-0.003,1.509-1.232,2.738-2.741,2.741
		h-5.326c-1.484,0-2.689,1.205-2.689,2.689C35.855,57.957,37.06,59.16,38.544,59.16z"/>
    <path fill="#49A997" d="M56.471,21.197h-2.688c-0.007,4.132-3.358,7.483-7.486,7.49c-4.132-0.007-7.479-3.354-7.487-7.49
		c0.007-4.127,3.355-7.478,7.487-7.484c4.128,0.007,7.479,3.357,7.486,7.484H56.471h2.689C59.157,14.094,53.4,8.338,46.296,8.334
		c-7.108,0.004-12.863,5.76-12.864,12.863c0.001,7.105,5.756,12.865,12.864,12.868c7.104-0.003,12.861-5.763,12.864-12.868H56.471z"
    />
    <path fill="#49A997" d="M47.046,10.768c-0.415-2.536-1.595-5.019-3.568-6.996C40.967,1.261,37.658-0.004,34.377,0
		c-3.283-0.004-6.591,1.261-9.097,3.769c-2.507,2.503-3.771,5.812-3.769,9.097c-0.002,3.283,1.262,6.594,3.767,9.099
		c2.505,2.502,5.811,3.765,9.09,3.762c0.809,0,1.614-0.077,2.406-0.224c1.458-0.273,2.421-1.681,2.147-3.138
		c-0.275-1.464-1.679-2.423-3.139-2.149c-0.471,0.086-0.944,0.133-1.415,0.133c-1.922-0.004-3.822-0.726-5.287-2.185
		c-1.465-1.472-2.189-3.376-2.191-5.298c0.002-1.927,0.726-3.828,2.192-5.295c1.468-1.464,3.369-2.188,5.294-2.188
		c1.926,0,3.826,0.722,5.294,2.188c1.14,1.146,1.815,2.56,2.066,4.072c0.241,1.463,1.625,2.458,3.09,2.217
		C46.292,13.617,47.285,12.234,47.046,10.768z"/>
</g>
</svg>
